<?xml version="1.0" encoding="UTF-8" ?>
<!DOCTYPE svg PUBLIC "-//W3C//DTD SVG 1.1//EN" "http://www.w3.org/Graphics/SVG/1.1/DTD/svg11.dtd">
<svg width="269.25pt" height="208.5pt" viewBox="0 0 469 363" version="1.1" xmlns="http://www.w3.org/2000/svg">
<g id="#292562ff">
<path fill="#292562" opacity="1.00" d=" M 0.00 0.00 L 0.09 0.00 C 0.07 0.02 0.02 0.05 0.00 0.07 L 0.00 0.00 Z" />
<path fill="#292562" opacity="1.00" d=" M 180.61 283.24 C 192.68 283.93 204.79 283.17 216.87 283.65 C 228.61 285.93 238.27 294.86 243.16 305.53 C 243.60 313.35 243.52 321.61 239.61 328.65 C 234.83 337.25 225.99 343.63 216.14 344.77 C 212.53 344.95 208.90 344.92 205.30 344.73 C 198.33 343.10 192.25 338.76 187.54 333.49 C 182.28 327.68 180.63 319.53 180.49 311.92 C 180.62 302.36 180.40 292.79 180.61 283.24 Z" />
</g>
<g id="#a40502ff">
</g>
<g id="#da2220ff">
</g>
<g id="#cf211fff">
</g>
<g id="#a50602ff">
</g>
<g id="#e32320ff">
</g>
<g id="#f0dd1dff">
<path fill="#f0dd1d" opacity="1.00" d=" M 302.10 17.13 C 303.19 15.09 304.17 12.99 305.16 10.91 C 306.89 14.15 308.56 17.42 310.26 20.67 C 313.84 21.14 317.42 21.68 320.96 22.44 C 318.45 24.90 315.93 27.34 313.37 29.74 C 313.79 33.36 314.37 36.96 314.87 40.57 C 314.13 40.22 312.65 39.53 311.91 39.19 C 309.68 38.05 307.57 36.17 304.96 36.17 C 301.80 37.01 299.04 38.86 296.11 40.25 C 296.21 36.80 296.84 33.42 297.19 30.00 C 295.03 27.17 292.09 25.06 289.58 22.57 C 293.02 21.77 296.51 21.17 300.03 20.82 C 300.73 19.59 301.43 18.37 302.10 17.13 Z" />
<path fill="#f0dd1d" opacity="1.00" d=" M 300.59 57.47 C 302.45 55.15 306.27 54.13 308.54 56.43 C 312.15 59.58 315.54 62.98 319.11 66.18 C 320.23 67.77 320.95 69.65 320.55 71.62 C 319.10 83.47 318.15 95.39 316.44 107.22 C 323.30 108.90 329.75 111.73 336.01 114.93 C 338.49 113.97 339.64 111.27 341.31 109.37 C 346.85 102.48 352.46 95.65 357.95 88.72 C 359.62 87.02 361.26 84.52 363.98 84.72 C 368.99 84.63 374.04 84.56 379.04 84.98 C 381.50 85.08 383.24 87.54 383.15 89.88 C 383.30 94.59 383.37 99.32 383.31 104.04 C 383.58 106.32 381.51 107.70 380.02 109.03 C 370.63 116.19 361.42 123.59 352.22 131.00 C 354.11 134.51 355.98 138.02 357.85 141.54 C 358.23 142.74 358.64 143.94 359.00 145.16 C 359.40 146.96 359.77 148.76 360.16 150.56 C 366.65 150.11 373.12 149.37 379.56 148.47 C 386.55 147.95 393.48 146.82 400.49 146.49 C 404.27 150.39 408.22 154.14 411.96 158.09 C 413.71 159.65 414.38 162.72 412.49 164.43 C 408.57 168.74 404.36 172.79 400.18 176.85 C 387.00 175.74 373.89 173.88 360.70 172.86 C 359.98 175.51 359.21 178.14 358.43 180.77 C 344.79 182.11 331.80 187.67 320.93 195.92 C 315.94 199.79 312.30 205.02 307.79 209.38 C 307.37 209.41 306.51 209.46 306.09 209.49 C 294.19 191.95 273.49 181.41 252.44 180.69 C 252.14 179.39 251.84 178.10 251.54 176.81 C 251.23 175.53 250.91 174.25 250.60 172.97 C 242.30 173.23 234.13 174.87 225.85 175.42 C 220.73 175.64 215.56 177.37 210.46 176.45 C 207.66 174.40 205.50 171.64 202.92 169.35 C 200.33 166.64 195.66 163.59 198.08 159.30 C 201.95 154.69 206.41 150.56 210.81 146.46 C 224.04 147.75 237.24 149.35 250.47 150.71 C 251.89 143.69 254.91 137.16 258.61 131.07 C 249.05 123.75 239.71 116.17 230.24 108.75 C 229.10 107.74 227.65 106.68 227.62 105.00 C 227.17 99.99 227.46 94.94 227.63 89.93 C 227.45 87.42 229.53 85.19 232.00 84.97 C 237.84 84.36 243.73 84.88 249.60 84.72 C 257.68 95.16 266.09 105.38 274.56 115.51 C 280.48 111.77 286.98 109.03 293.83 107.55 C 293.45 94.36 290.46 81.33 290.29 68.15 C 293.14 64.10 297.24 61.10 300.59 57.47 Z" />
<path fill="#f0dd1d" opacity="1.00" d=" M 168.42 135.31 C 168.98 134.51 169.15 132.90 170.47 133.28 C 172.15 136.13 173.42 139.20 174.91 142.16 C 178.48 142.56 182.03 143.13 185.59 143.61 C 183.14 146.05 180.75 148.56 178.25 150.96 C 178.35 154.61 179.00 158.21 179.77 161.77 C 176.39 160.59 173.50 158.30 170.09 157.28 C 166.70 158.13 163.95 160.81 160.31 160.82 C 161.01 157.63 161.63 154.42 161.88 151.17 C 159.28 148.76 156.78 146.24 154.28 143.73 C 157.58 143.13 160.94 142.89 164.21 142.19 C 166.35 140.48 167.08 137.61 168.42 135.31 Z" />
<path fill="#f0dd1d" opacity="1.00" d=" M 439.75 145.31 C 441.09 142.11 442.46 138.86 444.66 136.14 C 446.34 139.12 447.28 142.58 449.37 145.29 C 452.84 146.35 456.51 146.56 460.08 147.21 C 457.60 149.89 454.49 152.06 452.48 155.13 C 452.87 158.50 453.70 161.82 453.82 165.24 C 450.59 163.73 447.42 162.10 444.18 160.62 C 441.20 162.18 438.21 163.72 435.18 165.19 C 435.23 161.72 435.59 158.26 436.41 154.88 C 433.93 152.25 431.06 150.00 428.80 147.17 C 432.46 146.60 436.13 146.09 439.75 145.31 Z" />
</g>
<g id="#e32420ff">
</g>
<g id="#e92522ff">
</g>
<g id="#ca450cff">
</g>
<g id="#fffffeff">
<path fill="#fffffe" opacity="1.00" d=" M 55.85 135.58 C 59.02 132.10 63.25 129.36 68.00 128.77 C 72.29 128.29 76.62 128.61 80.94 128.56 C 89.03 128.69 97.40 127.73 105.17 130.61 C 119.75 135.26 130.81 148.54 133.34 163.56 C 133.60 169.59 133.54 175.63 133.54 181.67 C 138.75 182.15 144.05 182.37 149.07 183.97 C 157.52 186.58 165.04 191.96 170.20 199.14 C 170.95 193.12 174.54 187.97 179.40 184.50 C 185.33 181.05 192.39 181.69 198.97 181.72 C 204.56 181.88 210.29 181.66 215.70 183.34 C 217.40 183.89 219.15 185.01 220.93 184.04 C 231.03 180.54 241.85 179.87 252.44 180.69 C 273.49 181.41 294.19 191.95 306.09 209.49 C 306.51 209.46 307.37 209.41 307.79 209.38 C 312.30 205.02 315.94 199.79 320.93 195.92 C 331.80 187.67 344.79 182.11 358.43 180.77 C 375.25 178.79 392.68 182.85 406.78 192.26 C 421.87 202.72 433.40 218.89 436.65 237.13 C 438.05 244.34 437.64 251.71 437.77 259.01 C 437.80 276.03 437.76 293.05 437.79 310.07 C 437.80 313.76 437.74 317.47 437.26 321.14 C 436.56 324.27 435.48 327.30 434.40 330.32 C 426.87 346.05 409.18 356.30 391.76 354.20 L 391.00 354.07 C 386.02 353.24 381.16 351.84 376.59 349.69 C 368.23 344.83 361.32 337.46 357.50 328.54 C 355.73 323.56 354.66 318.32 354.61 313.02 C 354.53 295.39 354.48 277.76 354.40 260.13 C 353.75 256.28 348.71 255.71 346.36 258.46 C 345.78 267.95 346.75 277.49 345.92 286.98 C 345.61 296.64 345.98 306.32 345.75 315.99 C 345.58 321.90 343.56 327.54 341.12 332.86 C 335.05 343.19 324.87 351.27 312.97 353.55 C 304.46 355.69 295.40 354.26 287.40 350.94 C 273.13 344.97 263.04 330.44 262.60 314.97 C 262.41 299.09 262.58 283.20 262.53 267.32 C 262.48 264.71 262.76 262.06 262.26 259.48 C 261.28 256.90 257.61 255.54 255.42 257.50 C 253.54 259.06 253.76 261.76 253.65 263.95 C 253.61 280.30 253.61 296.64 253.59 312.99 C 253.69 319.11 252.14 325.13 249.90 330.79 C 247.47 335.25 244.63 339.54 240.99 343.10 C 233.21 350.44 222.70 354.52 212.03 354.68 C 188.04 354.53 164.04 354.93 140.05 354.71 C 127.88 354.25 115.59 352.15 104.35 347.33 C 80.13 337.10 61.21 315.40 54.44 289.99 C 51.91 280.61 51.53 270.89 51.28 261.24 C 43.28 260.86 35.10 260.00 27.96 256.04 C 17.83 250.92 10.23 241.10 7.78 230.01 C 6.83 224.49 7.22 218.84 7.64 213.28 C 9.74 204.70 14.16 196.47 21.34 191.12 C 29.84 184.36 40.77 181.73 51.46 181.68 C 51.45 170.06 51.27 158.44 51.50 146.82 C 51.53 142.69 53.46 138.85 55.85 135.58 M 67.88 139.63 C 65.99 140.94 63.84 142.13 62.78 144.29 C 61.36 146.64 61.72 149.44 61.67 152.05 C 61.75 165.62 61.73 179.19 61.78 192.77 C 53.80 192.92 45.61 192.14 37.87 194.54 C 27.71 197.55 19.29 206.40 17.64 216.98 C 17.17 222.25 16.96 227.83 19.25 232.75 C 22.55 241.49 30.61 247.77 39.46 250.21 C 46.72 252.20 54.32 250.92 61.74 251.38 C 61.45 259.23 61.46 267.13 62.22 274.96 C 63.53 290.89 70.19 306.27 80.60 318.37 C 94.62 334.55 115.67 344.20 137.02 344.80 C 159.78 344.73 182.54 344.87 205.30 344.73 C 208.90 344.92 212.53 344.95 216.14 344.77 C 225.99 343.63 234.83 337.25 239.61 328.65 C 243.52 321.61 243.60 313.35 243.16 305.53 C 243.35 290.38 243.04 275.21 243.34 260.06 C 243.34 254.20 248.22 249.60 253.33 247.56 C 261.80 244.44 272.14 250.96 272.69 260.08 C 273.09 278.36 272.68 296.67 272.90 314.96 C 273.23 322.97 276.79 330.80 282.65 336.27 C 289.49 342.84 299.54 345.85 308.88 344.40 C 322.65 342.53 334.39 330.45 335.19 316.45 C 335.49 297.98 335.12 279.49 335.36 261.01 C 335.38 254.67 340.11 248.86 346.23 247.35 C 354.47 244.61 364.39 251.19 364.76 259.92 C 365.20 277.94 365.08 295.97 365.08 314.00 C 365.05 319.94 366.83 325.87 370.14 330.81 C 377.77 342.55 393.79 347.78 406.87 342.76 C 418.52 338.87 427.13 327.34 427.30 315.04 C 427.28 297.67 427.30 280.31 427.29 262.94 C 427.21 254.29 427.84 245.51 425.73 237.03 C 421.60 220.44 410.15 205.67 394.80 198.02 C 369.53 184.70 335.07 191.61 317.74 214.58 C 314.24 218.63 313.02 225.34 307.00 226.54 C 304.03 225.74 301.65 223.69 300.37 220.91 C 295.04 210.60 286.06 202.43 275.61 197.51 C 263.66 191.86 250.12 190.73 237.09 191.66 C 230.48 192.16 224.20 194.40 218.07 196.76 C 214.96 197.77 213.75 193.58 210.91 193.21 C 204.03 192.14 196.98 192.74 190.03 192.63 C 185.29 192.30 180.58 196.15 180.65 201.05 C 180.45 228.44 180.70 255.85 180.61 283.24 C 169.06 283.41 157.52 283.24 145.97 283.33 C 138.14 283.54 130.77 278.87 126.59 272.43 C 122.57 266.16 123.08 258.42 123.33 251.31 C 127.55 251.27 131.77 251.33 136.00 251.28 C 145.06 251.03 154.26 247.24 159.99 240.04 C 165.48 233.50 167.47 224.58 165.96 216.24 C 164.63 208.06 158.94 201.28 152.00 197.08 C 143.32 192.00 132.96 192.65 123.29 192.77 C 122.24 183.85 123.26 174.80 122.57 165.85 C 120.94 151.03 106.78 139.23 92.03 139.45 C 83.98 139.51 75.93 139.38 67.88 139.63 M 157.78 254.82 C 150.65 259.21 142.27 261.05 133.96 260.93 C 134.03 263.53 135.20 265.84 136.77 267.85 C 139.22 270.85 143.10 272.60 146.98 272.43 C 154.82 272.42 162.67 272.58 170.51 272.32 C 170.45 267.55 170.32 262.78 170.33 258.01 C 170.33 253.25 170.40 248.48 170.27 243.72 C 166.44 247.77 162.67 252.03 157.78 254.82 Z" />
</g>
<g id="#f20012ff">
<path fill="#f20012" opacity="1.00" d=" M 67.88 139.63 C 75.93 139.38 83.98 139.51 92.03 139.45 C 106.78 139.23 120.94 151.03 122.57 165.85 C 123.26 174.80 122.24 183.85 123.29 192.77 C 132.96 192.65 143.32 192.00 152.00 197.08 C 158.94 201.28 164.63 208.06 165.96 216.24 C 167.47 224.58 165.48 233.50 159.99 240.04 C 154.26 247.24 145.06 251.03 136.00 251.28 C 131.77 251.33 127.55 251.27 123.33 251.31 C 123.08 258.42 122.57 266.16 126.59 272.43 C 130.77 278.87 138.14 283.54 145.97 283.33 C 157.52 283.24 169.06 283.41 180.61 283.24 C 180.40 292.79 180.62 302.36 180.49 311.92 C 180.63 319.53 182.28 327.68 187.54 333.49 C 192.25 338.76 198.33 343.10 205.30 344.73 C 182.54 344.87 159.78 344.73 137.02 344.80 C 115.67 344.20 94.62 334.55 80.60 318.37 C 70.19 306.27 63.53 290.89 62.22 274.96 C 61.46 267.13 61.45 259.23 61.74 251.38 C 54.32 250.92 46.72 252.20 39.46 250.21 C 30.61 247.77 22.55 241.49 19.25 232.75 C 16.96 227.83 17.17 222.25 17.64 216.98 C 19.29 206.40 27.71 197.55 37.87 194.54 C 45.61 192.14 53.80 192.92 61.78 192.77 C 61.73 179.19 61.75 165.62 61.67 152.05 C 61.72 149.44 61.36 146.64 62.78 144.29 C 63.84 142.13 65.99 140.94 67.88 139.63 Z" />
</g>
<g id="#c54109ff">
</g>
<g id="#c23333ff">
</g>
<g id="#cc3f0cff">
</g>
<g id="#df2722ff">
</g>
<g id="#aa2626ff">
</g>
<g id="#ca4543ff">
</g>
<g id="#0045bdff">
<path fill="#0045bd" opacity="1.00" d=" M 218.07 196.76 C 224.20 194.40 230.48 192.16 237.09 191.66 C 250.12 190.73 263.66 191.86 275.61 197.51 C 286.06 202.43 295.04 210.60 300.37 220.91 C 301.65 223.69 304.03 225.74 307.00 226.54 C 313.02 225.34 314.24 218.63 317.74 214.58 C 335.07 191.61 369.53 184.70 394.80 198.02 C 410.15 205.67 421.60 220.44 425.73 237.03 C 427.84 245.51 427.21 254.29 427.29 262.94 C 427.30 280.31 427.28 297.67 427.30 315.04 C 427.13 327.34 418.52 338.87 406.87 342.76 C 393.79 347.78 377.77 342.55 370.14 330.81 C 366.83 325.87 365.05 319.94 365.08 314.00 C 365.08 295.97 365.20 277.94 364.76 259.92 C 364.39 251.19 354.47 244.61 346.23 247.35 C 340.11 248.86 335.38 254.67 335.36 261.01 C 335.12 279.49 335.49 297.98 335.19 316.45 C 334.39 330.45 322.65 342.53 308.88 344.40 C 299.54 345.85 289.49 342.84 282.65 336.27 C 276.79 330.80 273.23 322.97 272.90 314.96 C 272.68 296.67 273.09 278.36 272.69 260.08 C 272.14 250.96 261.80 244.44 253.33 247.56 C 248.22 249.60 243.34 254.20 243.34 260.06 C 243.04 275.21 243.35 290.38 243.16 305.53 C 238.27 294.86 228.61 285.93 216.87 283.65 C 204.79 283.17 192.68 283.93 180.61 283.24 C 180.70 255.85 180.45 228.44 180.65 201.05 C 180.58 196.15 185.29 192.30 190.03 192.63 C 196.98 192.74 204.03 192.14 210.91 193.21 C 213.75 193.58 214.96 197.77 218.07 196.76 Z" />
</g>
<g id="#d82220ff">
</g>
<g id="#d72722ff">
</g>
<g id="#a50502ff">
</g>
<g id="#a00702ff">
</g>
<g id="#a40702ff">
</g>
<g id="#d21f1eff">
</g>
<g id="#890f0eff">
</g>
<g id="#931414ff">
</g>
<g id="#b10d0aff">
</g>
<g id="#a02929ff">
</g>
<g id="#e12927ff">
</g>
<g id="#921314ff">
</g>
</svg>
